<?xml version="1.0" standalone="no"?>
<!DOCTYPE svg PUBLIC "-//W3C//DTD SVG 20010904//EN"
 "http://www.w3.org/TR/2001/REC-SVG-20010904/DTD/svg10.dtd">
<svg version="1.0" xmlns="http://www.w3.org/2000/svg"
 width="256.000000pt" height="256.000000pt" viewBox="0 0 256.000000 256.000000"
 preserveAspectRatio="xMidYMid meet">

<g transform="translate(0.000000,256.000000) scale(0.100000,-0.100000)"
fill="#000000" stroke="none">
<path d="M1088 2173 l-89 -88 63 -18 c239 -67 459 -195 575 -334 63 -75 120
-177 149 -268 21 -63 27 -107 31 -205 6 -143 -9 -242 -57 -385 l-30 -90 229
230 c156 155 232 238 236 257 4 15 2 43 -4 61 -8 22 -147 169 -459 480 l-448
447 -53 0 -54 0 -89 -87z"/>
<path d="M1080 1863 c150 -110 218 -180 265 -278 66 -136 72 -289 16 -455 -53
-157 -148 -306 -314 -490 -79 -88 -84 -96 -70 -112 9 -10 22 -18 28 -18 14 0
129 126 208 228 145 188 237 416 237 584 -1 215 -131 415 -345 532 -27 15 -39
19 -25 9z"/>
<path d="M1476 1749 c121 -126 179 -222 226 -369 33 -107 33 -318 0 -434 -30
-104 -70 -196 -122 -282 l-42 -69 38 35 c65 62 141 245 170 412 49 282 -59
553 -299 750 -44 35 -39 29 29 -43z"/>
</g>
</svg>
